<?xml version="1.0" standalone="no"?>
<!DOCTYPE svg PUBLIC "-//W3C//DTD SVG 20010904//EN"
 "http://www.w3.org/TR/2001/REC-SVG-20010904/DTD/svg10.dtd">
<svg version="1.0" xmlns="http://www.w3.org/2000/svg"
 width="170.000000pt" height="170.000000pt" viewBox="0 0 170.000000 170.000000"
 preserveAspectRatio="xMidYMid meet">
<metadata>
Created by potrace 1.11, written by Peter Selinger 2001-2013
</metadata>
<g transform="translate(0.000000,170.000000) scale(0.100000,-0.100000)"
fill="#000000" stroke="none">
<path d="M380 1273 c-57 -19 -140 -69 -140 -84 0 -14 5 -16 28 -10 37 10 62 3
62 -17 0 -9 -41 -104 -91 -212 -123 -261 -159 -354 -166 -422 -5 -51 -3 -59
20 -82 31 -31 76 -34 100 -8 10 10 17 21 17 25 0 23 143 298 168 323 58 58
119 52 109 -11 -3 -16 -18 -59 -35 -95 -16 -36 -30 -68 -30 -73 -1 -4 -8 -20
-15 -35 -26 -51 -8 -111 42 -136 62 -32 161 -15 245 43 79 55 161 144 153 166
-6 14 -9 14 -34 -2 -16 -10 -30 -21 -33 -25 -3 -3 -32 -20 -64 -37 -56 -30
-100 -39 -109 -24 -3 5 15 58 39 118 23 61 46 127 49 148 9 51 -9 92 -50 111
-41 20 -135 21 -180 2 -19 -8 -35 -11 -35 -6 0 5 17 44 38 87 85 175 92 222
35 252 -22 11 -95 14 -123 4z"/>
<path d="M1000 942 c-8 -2 -43 -18 -77 -34 -74 -35 -83 -59 -23 -56 22 1 43
-2 47 -6 4 -4 -1 -28 -10 -54 -59 -154 -96 -272 -92 -293 8 -41 39 -74 74 -77
36 -4 48 7 77 68 101 213 136 278 156 296 26 24 77 43 96 37 23 -9 12 -73 -29
-165 -53 -118 -58 -149 -27 -193 44 -65 156 -64 263 3 41 26 175 158 175 173
0 21 -22 14 -95 -33 -54 -36 -89 -51 -114 -52 -46 -1 -46 7 8 148 45 116 53
176 27 205 -38 41 -152 48 -242 14 l-51 -20 -26 23 c-19 16 -38 22 -74 21 -26
0 -55 -2 -63 -5z"/>
</g>
</svg>
